HIERARCHY
ROOT Hips
{
 OFFSET 0.000000 0.000000 0.000000
 CHANNELS 6 Xposition Yposition Zposition Yrotation Xrotation Zrotation
 JOINT Chest
 {
  OFFSET 0.000000 9.585900 0.002600
  CHANNELS 3 Yrotation Xrotation Zrotation
  JOINT Chest2
  {
   OFFSET 0.000000 9.601200 -0.005300
   CHANNELS 3 Yrotation Xrotation Zrotation
   JOINT Chest3
   {
    OFFSET 0.000000 9.561800 0.000000
    CHANNELS 3 Yrotation Xrotation Zrotation
    JOINT Chest4
    {
     OFFSET 0.000000 9.552100 0.000000
     CHANNELS 3 Yrotation Xrotation Zrotation
     JOINT Neck
     {
      OFFSET 0.000000 14.453000 0.000000
      CHANNELS 3 Yrotation Xrotation Zrotation
      JOINT Head
      {
       OFFSET 0.000000 8.936500 -0.011300
       CHANNELS 3 Yrotation Xrotation Zrotation
       End Site
       {
        OFFSET 0.000000 17.073600 -0.006000
       }
      }
     }
     JOINT RightCollar
     {
      OFFSET -2.921100 9.558500 0.000000
      CHANNELS 3 Yrotation Xrotation Zrotation
      JOINT RightShoulder
      {
       OFFSET -13.519700 0.000000 0.000000
       CHANNELS 3 Yrotation Xrotation Zrotation
       JOINT RightElbow
       {
        OFFSET 0.000000 -29.696600 0.000000
        CHANNELS 3 Yrotation Xrotation Zrotation
        JOINT RightWrist
        {
         OFFSET 0.000000 -24.004700 0.000000
         CHANNELS 3 Yrotation Xrotation Zrotation
         End Site
         {
          OFFSET 0.000000 -17.728500 0.000000
         }
        }
       }
      }
     }
     JOINT LeftCollar
     {
      OFFSET 2.921100 9.558500 0.000000
      CHANNELS 3 Yrotation Xrotation Zrotation
      JOINT LeftShoulder
      {
       OFFSET 13.519700 0.000000 0.000000
       CHANNELS 3 Yrotation Xrotation Zrotation
       JOINT LeftElbow
       {
        OFFSET 0.000000 -29.696600 0.000000
        CHANNELS 3 Yrotation Xrotation Zrotation
        JOINT LeftWrist
        {
         OFFSET 0.000000 -24.004700 0.000000
         CHANNELS 3 Yrotation Xrotation Zrotation
         End Site
         {
          OFFSET 0.000000 -17.728500 0.000000
         }
        }
       }
      }
     }
    }
   }
  }
 }
 JOINT RightHip
 {
  OFFSET -7.771700 -0.012900 -0.001300
  CHANNELS 3 Yrotation Xrotation Zrotation
  JOINT RightKnee
  {
   OFFSET 0.000000 -40.869800 0.001200
   CHANNELS 3 Yrotation Xrotation Zrotation
   JOINT RightAnkle
   {
    OFFSET 0.000000 -39.717900 0.002100
    CHANNELS 3 Yrotation Xrotation Zrotation
    JOINT RightToe
    {
     OFFSET 0.000000 -4.965400 11.033500
     CHANNELS 3 Yrotation Xrotation Zrotation
     End Site
     {
      OFFSET 0.000000 -1.423100 5.872300
     }
    }
   }
  }
 }
 JOINT LeftHip
 {
  OFFSET 7.771700 -0.012900 -0.001300
  CHANNELS 3 Yrotation Xrotation Zrotation
  JOINT LeftKnee
  {
   OFFSET 0.000000 -40.869800 0.001200
   CHANNELS 3 Yrotation Xrotation Zrotation
   JOINT LeftAnkle
   {
    OFFSET 0.000000 -39.717900 0.002100
    CHANNELS 3 Yrotation Xrotation Zrotation
    JOINT LeftToe
    {
     OFFSET 0.000000 -4.965400 11.033500
     CHANNELS 3 Yrotation Xrotation Zrotation
     End Site
     {
      OFFSET 0.000000 -1.423100 5.872300
     }
    }
   }
  }
 }
}
MOTION
Frames: 8
Frame Time: 0.008333
0.000000 85.388000 0.000000 0.000000 -5.767877 0.000000 0.000000 11.653817 0.000000 0.000000 -5.885947 0.000000 0.000000 -0.000000 0.000000 0.000000 -0.000000 0.000000 0.000000 12.528835 0.000000 0.000000 0.711642 0.000000 0.000000 -0.000000 0.000000 0.000000 0.000000 -90.000000 0.000000 -2.309062 0.000000 0.000000 2.309062 0.000000 0.000000 -0.000000 0.000000 0.000000 -0.000000 90.000000 0.000000 -2.309062 0.000000 0.000000 2.309062 0.000000 0.000000 8.520406 0.000000 0.000000 1.905762 0.000000 -0.000000 -4.658285 0.000000 0.000000 -0.000000 0.000000 0.000000 8.520406 0.000000 0.000000 1.905762 0.000000 -0.000000 -4.658285 0.000000 0.000000 -0.000000 0.000000
-24.923178 62.212647 12.170715 175.828272 -53.684788 -1.155698 4.891626 26.643854 1.457971 0.700634 4.522363 0.178505 1.120263 7.171357 0.309603 3.636091 21.647123 1.427028 1.343416 16.532769 5.436932 0.596220 -5.016456 9.610940 4.273923 8.775630 5.043354 -26.942101 -28.887118 -11.470551 -108.841014 -54.057690 124.264221 -9.128643 -6.785674 -16.830674 -8.599768 4.425469 1.612687 13.512145 -23.932228 14.115741 101.571321 -75.197658 -103.248583 29.600878 -9.024761 17.493677 3.398442 -13.193197 -4.256028 -2.509516 61.337346 -6.155574 1.365768 -8.979921 10.318373 0.202045 -0.529651 0.084494 -4.197314 -10.128317 2.162910 28.182975 76.289966 29.087871 1.520087 -11.895066 -4.153497 0.188321 0.628091 0.095005
-24.922093 62.209623 12.171955 175.804703 -53.634369 -1.133099 4.888940 26.624108 1.452327 0.685802 4.564220 0.189882 1.115746 7.185373 0.312472 3.619321 21.665921 1.432627 1.313538 16.437673 5.337487 0.459949 -5.178534 9.354418 4.241923 8.713611 4.972044 -26.629486 -28.357776 -11.560322 -108.697995 -53.824763 125.078934 -8.946773 -6.483279 -16.518115 -8.585253 4.333577 1.617103 13.501481 -23.292953 14.035020 102.611261 -74.538262 -105.584424 29.565273 -8.874973 17.597469 3.407565 -13.249608 -4.265693 -2.503543 61.342969 -6.147768 1.367481 -8.984574 10.316258 0.200065 -0.525498 0.082908 -4.184273 -10.180309 2.171854 28.227797 76.292844 29.118934 1.510469 -11.907928 -4.136280 0.157503 0.634642 0.084433
-24.918802 62.210968 12.169652 175.799259 -53.610950 -1.135165 4.860247 26.683191 1.464900 0.688403 4.557896 0.187248 1.110791 7.199270 0.315341 3.601443 21.684574 1.438257 1.217242 16.351091 5.173810 0.386046 -5.347537 9.131974 4.140477 8.690808 4.869010 -26.253951 -27.843719 -11.599827 -108.483092 -53.577717 125.835742 -8.787654 -6.217215 -16.170193 -8.580253 4.263698 1.635190 13.475517 -22.649435 13.938146 103.520700 -73.776452 -107.750830 29.443720 -8.693884 17.626428 3.402131 -13.274282 -4.263122 -2.492751 61.345941 -6.134548 1.372010 -8.980812 10.313879 0.199444 -0.531990 0.077413 -4.182502 -10.201346 2.192284 28.206754 76.296523 29.086324 1.527183 -11.902486 -4.142496 0.182895 0.631788 0.090769
-24.914036 62.212045 12.167098 175.799229 -53.581267 -1.149577 4.830314 26.738517 1.486556 0.691446 4.549688 0.183914 1.105452 7.212021 0.317987 3.582649 21.701823 1.443324 1.166104 16.259690 5.049758 0.272069 -5.514392 8.871213 4.035633 8.662694 4.756936 -25.861315 -27.311723 -11.622637 -108.191836 -53.312685 126.529437 -8.645348 -5.994972 -15.800555 -8.581756 4.207916 1.644630 13.389310 -21.988054 13.844205 104.458176 -72.985176 -109.865679 29.279023 -8.470908 17.589926 3.392956 -13.305327 -4.250482 -2.489771 61.348123 -6.128608 1.376311 -8.973829 10.313475 0.199373 -0.541164 0.072137 -4.187605 -10.228084 2.234870 28.126797 76.308208 28.992685 1.511219 -11.899111 -4.150353 0.232045 0.627022 0.108347
-24.911134 62.208464 12.167226 175.776280 -53.514115 -1.135923 4.813229 26.739615 1.492927 0.687797 4.557006 0.185460 1.099729 7.222910 0.320273 3.581901 21.669944 1.424903 1.129576 16.216061 4.975777 0.135801 -5.679767 8.585109 3.933458 8.664342 4.688526 -25.454044 -26.756733 -11.654746 -107.836505 -53.008799 127.167677 -8.511888 -5.819339 -15.433448 -8.610353 4.212422 1.670285 13.240101 -21.299596 13.746179 105.520392 -72.222490 -112.019475 29.135917 -8.222449 17.518257 3.402823 -13.378259 -4.249502 -2.493854 61.352903 -6.130721 1.378878 -8.977071 10.313859 0.194473 -0.537234 0.070691 -4.177147 -10.296941 2.258421 28.083792 76.323729 28.940932 1.506478 -11.908198 -4.140402 0.223131 0.631544 0.105991
-24.908615 62.207252 12.164975 175.754929 -53.462356 -1.121454 4.791864 26.755378 1.495961 0.683938 4.562820 0.186807 1.093600 7.231619 0.322210 3.552059 21.707341 1.439403 0.986701 16.114457 4.736102 0.108540 -5.840576 8.368141 3.851858 8.600995 4.578246 -25.021421 -26.191279 -11.688011 -107.434313 -52.664364 127.771616 -8.395236 -5.679154 -15.087448 -8.589313 4.117211 1.636559 13.009882 -20.565118 13.673525 106.730081 -71.507339 -114.258138 29.072898 -7.968379 17.457199 3.412047 -13.433967 -4.251545 -2.497394 61.359359 -6.129822 1.380395 -8.980445 10.311075 0.191167 -0.535090 0.071054 -4.165083 -10.350585 2.282646 28.049638 76.346883 28.890478 1.491986 -11.920579 -4.110619 0.189472 0.630616 0.092916
-24.907128 62.206006 12.162118 175.744919 -53.408717 -1.111513 4.756091 26.771027 1.489345 0.679764 4.567797 0.187802 1.086889 7.239054 0.323645 3.520126 21.740617 1.451104 0.891167 16.009978 4.533478 0.041320 -5.995942 8.112451 3.777438 8.539476 4.480005 -24.575562 -25.620033 -11.725770 -107.011663 -52.292329 128.367187 -8.313143 -5.554576 -14.774069 -8.561894 4.025208 1.602057 12.777297 -19.818670 13.596258 108.020977 -70.794114 -116.567966 29.104007 -7.710562 17.464487 3.411693 -13.491190 -4.262938 -2.488605 61.367088 -6.116260 1.389114 -8.983518 10.307955 0.191911 -0.535392 0.069321 -4.159441 -10.404842 2.292613 28.032342 76.355569 28.867612 1.483926 -11.922346 -4.101020 0.164355 0.629023 0.088901
